#!OML:ASF F:\VICON\USERDATA\INSTALL\rory3\rory3.ASF
:FULLY-SPECIFIED
:DEGREES
2323
root 11.5299 17.7781 1.53356 -906.161 30.0273 -184.984
lowerback 10.6957 -0.0392337 -7.14363
upperback 0.966576 -0.817863 -0.322374
thorax -4.893 -0.217092 3.80468
lowerneck -18.9733 -3.94406 -8.99176
upperneck 32.9348 -2.70027 4.4024
head 14.8312 -1.14619 3.03531
rclavicle 2.08941e-014 6.16232e-015
rhumerus -38.9848 -10.0559 -81.3132
rradius 31.4925
rwrist 4.52983
rhand -17.4617 7.77652
rfingers 7.12502
rthumb 8.78977 -22.0204
lclavicle 2.08941e-014 6.16232e-015
lhumerus -30.4251 -1.80977 83.7451
lradius 34.7017
lwrist -6.322
lhand -18.1864 24.0763
lfingers 7.12502
lthumb 8.09042 53.9015
rfemur -21.4613 -0.647729 13.1585
rtibia 26.5942
rfoot -3.08973 3.16012
rtoes 3.3402
lfemur 14.7602 -0.730689 -28.0019
ltibia 13.9184
lfoot -8.6659 -10.5358
ltoes -5.93646
2324
root 11.6243 17.7972 1.44329 -905.963 29.7899 -184.542
lowerback 10.6855 -0.0677946 -6.85126
upperback 0.952606 -0.818881 -0.179318
thorax -4.904 -0.223931 3.79111
lowerneck -18.9336 -3.92301 -8.98841
upperneck 32.9041 -2.63847 4.31224
head 14.8015 -1.13094 3.00723
rclavicle -8.06507e-014 -8.94531e-016
rhumerus -38.9403 -10.1453 -81.2285
rradius 31.4415
rwrist 4.59095
rhand -17.5018 7.41193
rfingers 7.12502
rthumb 8.75113 -22.3867
lclavicle -8.06507e-014 -8.94531e-016
lhumerus -30.7622 -1.55664 83.7335
lradius 34.2694
lwrist -6.54657
lhand -18.0002 24.2199
lfingers 7.12502
lthumb 8.27016 54.038
rfemur -21.0179 -0.598763 13.6433
rtibia 26.585
rfoot -2.20034 3.51798
rtoes 7.62674
lfemur 14.6522 -1.21943 -27.5642
ltibia 14.9437
lfoot -8.36178 -10.3724
ltoes -6.0911
2325
root 11.7192 17.815 1.35301 -905.694 29.6594 -183.992
lowerback 10.6996 -0.0917309 -6.4931
upperback 0.891495 -0.810459 -0.00939384
thorax -4.98005 -0.224899 3.76805
lowerneck -18.7812 -3.88011 -9.04295
upperneck 32.7921 -2.59286 4.37295
head 14.7134 -1.10881 3.04671
rclavicle -1.03809e-013 6.95746e-015
rhumerus -38.9806 -10.1439 -81.2077
rradius 31.4515
rwrist 4.57902
rhand -17.5053 7.29915
rfingers 7.12502
rthumb 8.74777 -22.4996
lclavicle -1.03809e-013 6.95746e-015
lhumerus -31.1736 -1.06435 83.6387
lradius 33.8723
lwrist -6.75223
lhand -17.9849 24.2268
lfingers 7.12502
lthumb 8.2849 54.0444
rfemur -20.6511 -0.663038 14.325
rtibia 26.5665
rfoot -1.81348 3.28412
rtoes 5.47885
lfemur 14.4776 -1.68257 -27.0277
ltibia 16.0845
lfoot -8.01594 -10.2299
ltoes -6.42687
2326
root 11.8117 17.8258 1.25777 -905.527 29.6663 -183.572
lowerback 10.6656 -0.0483221 -6.12848
upperback 0.859679 -0.707288 0.102686
thorax -5.00927 -0.181287 3.66535
lowerneck -18.8126 -3.88036 -9.07062
upperneck 32.8481 -2.57024 4.36917
head 14.7452 -1.10069 3.05675
rclavicle -2.06239e-015 4.96962e-015
rhumerus -39.1329 -9.98058 -81.2966
rradius 31.6051
rwrist 4.27942
rhand -17.614 7.37098
rfingers 7.12502
rthumb 8.64281 -22.4321
lclavicle -2.06239e-015 4.96962e-015
lhumerus -31.624 -0.635124 83.5784
lradius 33.51
lwrist -6.94166
lhand -18.0203 23.9701
lfingers 7.12502
lthumb 8.25072 53.789
rfemur -20.2526 -0.774734 14.8975
rtibia 26.5094
rfoot -1.77011 2.17087
rtoes -0.206194
lfemur 14.2739 -2.25392 -26.7258
ltibia 17.4389
lfoot -7.82131 -9.86098
ltoes -8.82552
2327
root 11.9022 17.8356 1.16149 -905.428 29.7412 -183.245
lowerback 10.6509 0.0593124 -5.78698
upperback 0.837276 -0.524211 0.142836
thorax -5.04711 -0.0976494 3.48814
lowerneck -18.9645 -3.91386 -8.96599
upperneck 33.0741 -2.59936 4.31295
head 14.8836 -1.10195 3.01956
rclavicle 2.87399e-014 -1.799e-014
rhumerus -39.2685 -9.87644 -81.3811
rradius 31.6744
rwrist 3.94
rhand -17.6342 7.13949
rfingers 7.12502
rthumb 8.62335 -22.6644
lclavicle 2.87399e-014 -1.799e-014
lhumerus -31.9923 -0.528852 83.5245
lradius 33.0565
lwrist -7.02164
lhand -18.5264 23.7385
lfingers 7.12502
lthumb 7.7623 53.5761
rfemur -19.8318 -1.02354 15.3342
rtibia 26.506
rfoot -1.80011 1.0213
rtoes -3.19986
lfemur 13.9974 -2.71827 -26.4911
ltibia 18.9178
lfoot -7.47209 -9.73452
ltoes -10.3867
